<svg xmlns="http://www.w3.org/2000/svg" width="64" height="64" viewBox="0 0 64 64" fill="none">
  <defs>
    <linearGradient id="bg" x1="8" y1="6" x2="56" y2="58" gradientUnits="userSpaceOnUse">
      <stop offset="0" stop-color="#172554"/>
      <stop offset="1" stop-color="#0B1220"/>
    </linearGradient>
    <linearGradient id="roof" x1="16" y1="18" x2="48" y2="36" gradientUnits="userSpaceOnUse">
      <stop offset="0" stop-color="#FCD34D"/>
      <stop offset="1" stop-color="#F59E0B"/>
    </linearGradient>
    <linearGradient id="flow" x1="22" y1="43" x2="41" y2="30" gradientUnits="userSpaceOnUse">
      <stop offset="0" stop-color="#22D3EE"/>
      <stop offset="1" stop-color="#38BDF8"/>
    </linearGradient>
    <filter id="glow" x="0" y="0" width="64" height="64" filterUnits="userSpaceOnUse" color-interpolation-filters="sRGB">
      <feGaussianBlur stdDeviation="1.6"/>
    </filter>
  </defs>

  <rect x="2" y="2" width="60" height="60" rx="17" fill="url(#bg)"/>
  <rect x="2.5" y="2.5" width="59" height="59" rx="16.5" stroke="#334155"/>

  <circle cx="51" cy="14" r="6.5" fill="#F59E0B" opacity="0.22" filter="url(#glow)"/>
  <circle cx="13" cy="53" r="7.5" fill="#0EA5E9" opacity="0.18" filter="url(#glow)"/>

  <path d="M12 31L32 14L52 31" stroke="url(#roof)" stroke-width="4.6" stroke-linecap="round" stroke-linejoin="round"/>
  <path d="M18 30V50H46V30" stroke="#E2E8F0" stroke-width="3.2" stroke-linecap="round" stroke-linejoin="round"/>
  <path d="M30 50V38H34V50" fill="#FBBF24"/>
  <path d="M23 42L30 36L35 39L42 30" stroke="url(#flow)" stroke-width="3" stroke-linecap="round" stroke-linejoin="round"/>
  <circle cx="42" cy="30" r="2.2" fill="#7DD3FC"/>
</svg>
